<?xml version="1.0" encoding="UTF-8" standalone="no"?>
<svg width="426px" height="76px" viewBox="0 0 426 76" version="1.1" xmlns="http://www.w3.org/2000/svg" xmlns:xlink="http://www.w3.org/1999/xlink" xmlns:sketch="http://www.bohemiancoding.com/sketch/ns">
    <!-- Generator: Sketch 3.3.3 (12081) - http://www.bohemiancoding.com/sketch -->
    <title>Imported Layers</title>
    <desc>Created with Sketch.</desc>
    <defs></defs>
    <g id="Page-1" stroke="none" stroke-width="1" fill="none" fill-rule="evenodd" sketch:type="MSPage">
        <g id="Imported-Layers" sketch:type="MSLayerGroup" transform="translate(-55.000000, -61.000000)">
            <g transform="translate(55.000000, 61.000000)" sketch:type="MSShapeGroup">
                <path d="M75.071,28.899 C74.351,26.757 73.013,24.911 71.313,23.44 C69.279,21.673 47.68,4.407 45.477,2.803 C43.504,1.356 41.169,0.382 38.711,0.237 C36.212,0.085 33.785,0.788 31.643,2.059 C30.523,2.724 29.524,3.583 28.508,4.389 C27.424,5.242 26.341,6.102 25.264,6.961 C23.079,8.692 10.055,19.125 5.722,22.605 C3.913,24.058 2.334,25.655 1.371,27.804 C0.917,28.815 0.608,29.891 0.44,30.986 C0.245,32.246 0.318,33.529 0.312,34.793 C0.3,40.337 0.288,57.76 0.324,60.387 C0.354,62.795 0.197,65.289 0.947,67.613 C2.267,71.722 5.886,74.748 10.098,75.547 C11.369,75.789 12.646,75.77 13.929,75.776 C15.315,75.776 16.7,75.783 18.093,75.783 C20.84,75.789 23.594,75.758 26.341,75.758 C35.915,75.789 60.619,75.783 63.397,75.77 C65.799,75.764 68.135,75.16 70.175,73.871 C71.874,72.799 73.297,71.298 74.248,69.525 C75.319,67.54 75.604,65.452 75.64,63.231 C75.693,60.157 75.719,41.819 75.7,36.276 C75.693,33.789 75.869,31.296 75.071,28.899 L75.071,28.899 Z M69.872,34.339 C69.854,35.901 69.842,58.807 69.829,61.355 C69.823,63.328 69.932,65.349 68.856,67.104 C68.008,68.49 66.592,69.35 65.025,69.7 C63.984,69.931 62.925,69.906 61.858,69.906 C60.473,69.912 18.752,69.918 15.975,69.912 C13.874,69.906 11.617,70.142 9.644,69.265 C8.179,68.611 7.097,67.401 6.582,65.882 C6.285,65.01 6.194,64.09 6.189,63.17 C6.182,61.79 6.17,38.981 6.158,36.675 C6.14,34.394 5.795,31.816 6.945,29.74 C7.471,28.784 8.283,28.04 9.124,27.367 C10.213,26.497 27.612,12.571 31.981,9.109 C33.942,7.542 35.885,5.744 38.59,6.029 C39.771,6.15 40.877,6.664 41.822,7.36 C42.936,8.177 62.488,23.852 64.661,25.594 C66.447,27.017 68.663,28.366 69.461,30.63 C69.884,31.816 69.884,33.093 69.872,34.339 L69.872,34.339 Z" id="Fill-1" fill="#DD4463"></path>
                <path d="M52.727,47.439 C52.727,47.848 52.652,48.274 52.485,48.649 L52.485,48.655 C49.937,54.162 44.166,57.37 38.194,57.37 C32.261,57.37 26.528,54.406 23.852,48.969 C23.801,48.865 23.751,48.76 23.702,48.655 L23.702,48.649 C23.49,48.168 23.406,47.589 23.485,47.07 C23.499,46.865 23.543,46.6 23.636,46.416 C23.72,46.162 23.842,45.92 23.999,45.702 C24.6,44.765 25.744,44.263 26.838,44.333 C27.945,44.354 28.981,44.987 29.508,45.961 C30.104,47.06 30.611,48.084 31.509,48.986 C33.236,50.72 35.653,51.668 38.094,51.668 C40.534,51.668 42.952,50.72 44.679,48.986 C45.519,48.142 46.1,47.174 46.607,46.107 C47.106,45.055 48.186,44.355 49.351,44.333 C49.469,44.326 49.589,44.324 49.707,44.333 C50.673,44.333 51.67,44.893 52.19,45.702 C52.346,45.92 52.467,46.162 52.552,46.416 C52.645,46.604 52.688,46.863 52.704,47.07 C52.722,47.19 52.727,47.312 52.727,47.439 C52.727,47.669 52.727,47.312 52.727,47.439" id="Fill-2" fill="#DD4463"></path>
                <path d="M111.906,43.478 C108.573,42.252 105.3,41.023 105.3,37.81 C105.3,35.236 107.287,32.721 111.615,32.721 C114.48,32.721 116.467,33.836 118.341,35.236 L119.74,33.427 C117.693,31.731 114.711,30.504 111.729,30.504 C105.887,30.504 102.667,33.89 102.667,37.988 C102.667,42.779 107.346,44.475 111.615,45.993 C114.83,47.161 118.453,48.685 118.453,52.19 C118.453,55.173 116.176,57.741 111.787,57.741 C107.755,57.741 105.24,56.163 102.845,54.176 L101.327,56.104 C103.841,58.215 107.464,59.964 111.615,59.964 C117.693,59.964 121.086,56.282 121.086,52.071 C121.086,46.574 116.289,45.116 111.906,43.478" id="Fill-3" fill="#2B2D6A"></path>
                <path d="M157.271,30.504 C154.057,30.504 150.962,32.721 147.748,36.232 C146.751,32.781 144.474,30.504 139.973,30.504 C136.872,30.504 133.658,32.663 131.144,35.526 L130.966,35.526 L130.734,31.204 L128.51,31.204 L128.51,59.265 L131.084,59.265 L131.084,38.1 C134.18,34.595 136.99,32.84 139.505,32.84 C143.828,32.84 145.815,35.645 145.815,41.611 L145.815,59.265 L148.388,59.265 L148.388,38.1 C151.483,34.595 154.176,32.84 156.809,32.84 C161.072,32.84 163.065,35.645 163.065,41.611 L163.065,59.265 L165.692,59.265 L165.692,41.255 C165.692,34.008 162.887,30.504 157.271,30.504" id="Fill-4" fill="#2B2D6A"></path>
                <path d="M186.216,30.504 C181.655,30.504 177.795,32.721 175.808,34.127 L176.982,36.055 C178.851,34.655 182.124,32.781 185.925,32.781 C191.422,32.781 192.644,37.4 192.531,41.67 C180.078,43.069 174.409,46.052 174.409,52.249 C174.409,57.569 178.15,59.964 182.593,59.964 C186.275,59.964 189.667,57.918 192.531,55.641 L192.644,55.641 L192.94,59.265 L195.105,59.265 L195.105,41.314 C195.105,35.295 192.881,30.504 186.216,30.504 L186.216,30.504 Z M192.531,53.186 C189.08,56.163 186.216,57.741 183.002,57.741 C179.787,57.741 177.096,56.163 177.096,52.13 C177.096,47.689 181.015,45.003 192.531,43.657 L192.531,53.186 L192.531,53.186 Z" id="Fill-5" fill="#2B2D6A"></path>
                <path d="M215.742,30.504 C212.409,30.504 209.664,32.959 207.789,36.404 L207.612,36.404 L207.381,31.204 L205.163,31.204 L205.163,59.265 L207.731,59.265 L207.731,40.146 C209.895,34.886 212.877,32.959 215.392,32.959 C216.5,32.959 217.028,33.071 217.966,33.427 L218.547,31.085 C217.61,30.616 216.791,30.504 215.742,30.504" id="Fill-6" fill="#2B2D6A"></path>
                <path d="M235.21,56.81 C234.214,57.278 232.755,57.687 231.699,57.687 C227.845,57.687 226.967,55.286 226.967,51.721 L226.967,33.427 L235.092,33.427 L235.092,31.204 L226.967,31.204 L226.967,23.073 L224.743,23.073 L224.394,31.204 L219.952,31.435 L219.952,33.427 L224.334,33.427 L224.334,51.49 C224.334,56.519 225.918,59.964 231.35,59.964 C232.519,59.964 234.274,59.496 235.91,58.915 L235.21,56.81" id="Fill-7" fill="#2B2D6A"></path>
                <path d="M256.434,29.567 C253.451,29.567 250.29,31.435 248.191,35.354 L247.954,35.354 L247.373,30.267 L240.357,30.267 L240.357,59.265 L248.95,59.265 L248.95,42.429 C250.469,38.509 253.154,37.11 255.319,37.11 C256.547,37.11 257.425,37.282 258.48,37.572 L259.879,30.154 C259.062,29.798 258.071,29.567 256.434,29.567" id="Fill-8" fill="#2B2D6A"></path>
                <path d="M287.359,43.478 C287.359,35.586 283.267,29.567 275.025,29.567 C268.068,29.567 261.344,35.354 261.344,44.766 C261.344,54.354 267.719,59.964 276.022,59.964 C279.467,59.964 283.327,58.737 286.31,56.691 L283.445,51.49 C281.34,52.777 279.354,53.417 277.189,53.417 C273.328,53.417 270.405,51.49 269.647,47.102 L287.009,47.102 C287.182,46.402 287.359,45.003 287.359,43.478 L287.359,43.478 Z M269.587,41.783 C270.175,37.928 272.511,36.114 275.202,36.114 C278.648,36.114 280.053,38.45 280.053,41.783 L269.587,41.783 L269.587,41.783 Z" id="Fill-9" fill="#2B2D6A"></path>
                <path d="M310.451,29.567 C306.537,29.567 303.613,31.613 301.159,33.949 L300.922,33.949 L300.34,30.267 L293.325,30.267 L293.325,59.265 L301.918,59.265 L301.918,39.677 C303.786,37.869 305.132,36.873 307.297,36.873 C309.751,36.873 310.866,38.16 310.866,42.37 L310.866,59.265 L319.459,59.265 L319.459,41.255 C319.459,34.008 316.766,29.567 310.451,29.567" id="Fill-10" fill="#2B2D6A"></path>
                <path d="M343.02,52.659 C342.26,52.949 341.204,53.24 340.273,53.24 C337.99,53.24 336.531,51.899 336.531,48.62 L336.531,36.991 L343.487,36.991 L343.487,30.267 L336.531,30.267 L336.531,22.551 L329.398,22.551 L328.401,30.267 L323.96,30.616 L323.96,36.991 L327.939,36.991 L327.939,48.739 C327.939,55.463 330.743,59.964 337.932,59.964 C340.742,59.964 342.847,59.383 344.365,58.915 L343.02,52.659" id="Fill-11" fill="#2B2D6A"></path>
                <path d="M353.426,17.055 C350.562,17.055 348.457,18.869 348.457,21.496 C348.457,24.129 350.562,26.003 353.426,26.003 C356.35,26.003 358.396,24.129 358.396,21.496 C358.396,18.869 356.35,17.055 353.426,17.055 L353.426,17.055 Z M349.156,59.265 L357.749,59.265 L357.749,30.267 L349.156,30.267 L349.156,59.265 Z" id="Fill-12" fill="#2B2D6A"></path>
                <path d="M382.424,29.567 C378.505,29.567 375.587,31.613 373.126,33.949 L372.895,33.949 L372.307,30.267 L365.298,30.267 L365.298,59.265 L373.891,59.265 L373.891,39.677 C375.759,37.869 377.105,36.873 379.27,36.873 C381.719,36.873 382.833,38.16 382.833,42.37 L382.833,59.265 L391.426,59.265 L391.426,41.255 C391.426,34.008 388.74,29.567 382.424,29.567" id="Fill-13" fill="#2B2D6A"></path>
                <path d="M414.233,53.827 L409.554,53.827 C406.334,53.827 405.166,53.127 405.166,51.662 C405.166,50.672 405.456,50.144 406.222,49.504 C407.509,49.913 408.676,50.085 409.726,50.085 C416.101,50.085 421.129,46.989 421.129,40.324 C421.129,38.806 420.715,37.4 420.192,36.523 C419.623,35.194 418.965,34.305 418.438,33.742 C417.945,33.202 417.56,32.959 417.477,32.905 C417.465,32.899 417.459,32.894 417.459,32.894 C420.631,32.894 423.104,32.3 424.533,31.287 C424.628,31.215 424.859,31.025 424.859,31.025 L424.533,29.994 L424.361,29.454 L423.282,25.961 C421.308,27.136 419.392,28.025 417.536,28.624 C415.674,29.229 413.408,29.496 410.734,29.43 C409.554,29.43 408.457,29.525 407.431,29.733 C407.414,29.733 407.401,29.733 407.384,29.739 C402.111,30.51 397.741,33.955 397.741,40.034 C397.741,43.419 399.615,46.165 401.655,47.57 L401.655,47.808 C399.787,49.088 398.388,51.134 398.388,53.24 C398.388,55.641 399.557,57.16 401.073,58.156 L401.073,58.387 C398.388,59.905 396.923,61.838 396.923,64.234 C396.923,69.375 402.301,71.599 409.086,71.599 C419.024,71.599 425.28,67.217 425.28,61.192 C425.28,55.991 421.361,53.827 414.233,53.827 L414.233,53.827 Z M409.726,35.354 C412.01,35.354 413.699,36.991 413.699,40.034 C413.699,43.247 412.01,44.884 409.726,44.884 C407.448,44.884 405.753,43.247 405.753,40.034 C405.753,36.932 407.448,35.354 409.726,35.354 L409.726,35.354 Z M410.432,66.221 C406.571,66.221 403.998,65.052 403.998,62.888 C403.998,61.838 404.525,60.961 405.574,60.023 C406.512,60.255 407.68,60.373 409.666,60.373 L412.651,60.373 C415.514,60.373 417.092,60.842 417.092,62.656 C417.092,64.643 414.286,66.221 410.432,66.221 L410.432,66.221 Z" id="Fill-14" fill="#2B2D6A"></path>
            </g>
        </g>
    </g>
</svg>